<svg xmlns="http://www.w3.org/2000/svg" viewBox="0 0 128 128" fill="none" role="img" aria-label="TraceDesk">
  <defs>
    <linearGradient id="bg" x1="0" y1="0" x2="128" y2="128" gradientUnits="userSpaceOnUse">
      <stop stop-color="#0f1117"/>
      <stop offset="1" stop-color="#1a1d27"/>
    </linearGradient>
    <linearGradient id="shell" x1="40" y1="52" x2="88" y2="96" gradientUnits="userSpaceOnUse">
      <stop stop-color="#38bdf8"/>
      <stop offset="1" stop-color="#2563eb"/>
    </linearGradient>
  </defs>
  <rect width="128" height="128" rx="28" fill="url(#bg)"/>
  <rect x="3" y="3" width="122" height="122" rx="26" stroke="#22d3ee" stroke-opacity="0.45" stroke-width="2"/>
  <ellipse cx="64" cy="78" rx="30" ry="22" fill="#f8fafc"/>
  <ellipse cx="64" cy="74" rx="28" ry="18" fill="url(#shell)"/>
  <circle cx="64" cy="46" r="22" fill="#3b82f6"/>
  <rect x="46" y="40" width="36" height="14" rx="7" fill="#bae6fd" fill-opacity="0.9"/>
  <circle cx="56" cy="47" r="3" fill="#0f172a"/>
  <circle cx="72" cy="47" r="3" fill="#0f172a"/>
  <path d="M58 52c2 2 10 2 12 0" stroke="#0f172a" stroke-width="2" stroke-linecap="round"/>
  <rect x="60" y="18" width="8" height="12" rx="3" fill="#3b82f6"/>
  <circle cx="64" cy="16" r="5" fill="#22c55e"/>
  <circle cx="42" cy="42" r="6" fill="#f97316"/>
  <circle cx="86" cy="42" r="6" fill="#f97316"/>
  <rect x="78" y="58" width="16" height="22" rx="4" fill="#e2e8f0"/>
  <path d="M92 88c8 4 12 10 12 16" stroke="#38bdf8" stroke-width="4" stroke-linecap="round"/>
  <path d="M100 104l4 4 6-8" stroke="#f97316" stroke-width="3" stroke-linecap="round" stroke-linejoin="round"/>
</svg>
